<svg xmlns="http://www.w3.org/2000/svg" viewBox="0 0 380 104" width="380" height="104" fill="none" stroke="currentColor" stroke-linecap="square" stroke-linejoin="round" role="img" aria-label="highlighter smear">
<path d="M8 26.5 12.1 25.3 16.3 19.5 20.2 22.8 24.3 23.1 28.4 20.8 32.4 21.5 36.5 19.2 40.5 23.5 44.6 20.1 48.6 22.3 52.6 23.5 56.7 22.5 60.7 22.3 64.8 20.9 68.8 24 72.9 20.7 76.9 20.6 80.9 24.3 85 21.1 88.9 25.4 93 25.2 97.1 20.3 101.1 24.4 105.1 23.1 109.2 23.2 113.2 21.8 117.2 25.5 121.3 22.7 125.4 21.4 129.4 25.7 133.4 24.6 137.5 24.5 141.5 23.1 145.5 22.6 149.6 23.7" stroke-width="9.5"/>
<path d="M157.7 23.6 161.7 22.1 165.7 24.2 169.8 25.5 173.8 23.5 177.8 22.9 181.9 21.3 185.9 26.2 190 24 194 26.1 198 21.1 202.1 24.7 206.1 24.5 210.2 24.8 214.2 25.1 218.2 21.9" stroke-width="9.5"/>
<path d="M226.3 20.7 230.3 20.4 234.4 22 238.4 22.9 242.5 23.8 246.6 24.6 250.5 19.9 254.7 25.1 258.6 19.6 262.7 23.5 266.8 23.6 270.7 20.1 274.8 21.3 278.9 23.5 282.9 23.5 286.9 21.3 290.9 18.6 294.9 19.3 299.1 21.2 303.2 23 307.1 19.9 311.1 18.6 315.1 17.7 319.2 18.5 323.3 19.7 327.4 20.1" stroke-width="9.5"/>
<path d="M335.5 21.9 339.4 18.2 343.6 22.1 347.6 19.1 351.6 19 355.6 17.3 359.8 22.4 363.8 20.5" stroke-width="6.7"/>
<path d="M8 25.5 12.1 24.1 16 28.9 20.1 26.9 24.2 25.2 28.2 28.8 32.2 28.2 36.3 25.9 40.3 28.2 44.4 26.6 48.4 28.8 52.5 26.9 56.5 26.8 60.5 29.7 64.6 27.5 68.6 28.9 72.8 25.3 76.7 28.5 80.8 27.6 84.8 28 88.8 30.5 92.9 31 97 27.7 101 27.3 105.1 26.9 109.1 28.5 113.1 29.6 117.2 29.1 121.3 27.6 125.3 27.2 129.3 29.9 133.4 31.3 137.4 26.2 141.5 29.5 145.5 28 149.6 26.9 153.6 31 157.6 28.5 161.7 28.2 165.7 29.5 169.8 29.1 173.8 31.6 177.9 29.6 181.9 26.4 186 26.9 190 28.8 194.1 31.6 198.1 31.1 202.1 27.8 206.2 27.9 210.3 31 214.3 29.8 218.3 28.9 222.4 27.8 226.4 28 230.4 27.3 234.6 30.2 238.5 27.4 242.6 26 246.7 30.5 250.7 29.9 254.8 29.6 258.8 29.8 262.7 24.6 266.8 25.7 270.8 24.7 274.9 26.2 279 25.9 283.1 27.8 287.1 27.7 291.2 29.3 295.2 28.2 299.2 25 303.3 27.2 307.3 27.7 311.4 26.4 315.4 26.2 319.3 23.1 323.6 28.5 327.6 26.9 331.6 27.5 335.5 22.8 339.6 24 343.6 23.5 347.8 26.2 351.8 26.3 355.8 23.2 359.9 24.2 363.9 23.1 368 25.2 372 23.5" stroke-width="9.5"/>
<path d="M7.9 28.5 11.9 32 15.9 31.8 20 31.2 23.9 34.2 28.1 30.3 32 34.5 36.2 30.4 40.3 30.4 44.1 35.8 48.3 31.2 52.3 32.7 56.5 30.1 60.5 29.9 64.4 34.4 68.5 33 72.5 34.9 76.6 34.1 80.6 34.9 84.7 33.1 88.8 33.7 92.8 34.7 96.9 34 100.9 33.7 104.9 36.5 109 34.9 113.1 33.2 117.1 34.1 121.2 32.4 125.2 35 129.3 33.4 133.3 36.8 137.4 36.5 141.4 32.9 145.5 34.5 149.5 36.9 153.6 36.6 157.6 35.2 161.7 32.9 165.8 34.9 169.8 34.2 173.9 35.9 177.9 32.6 182 35.3 186 33.4 190.1 35.5 194.1 31.7 198.1 32.6 202.2 33.6 206.2 31 210.3 32 214.4 35.9 218.4 33.2 222.5 33.4 226.5 34.3 230.5 31.8 234.6 32.2 238.7 36.6 242.8 34.7 246.7 31.8 250.8 32.4 254.9 32.7 258.9 31.6 263 34.6 267 31.1 271.1 33.5 275.1 33 279.2 33.8 283.3 35.1 287.3 35.1 291.4 34.9 295.3 31.3 299.4 33.2 303.4 30.1 307.5 33.2 311.6 33.9 315.6 33.1 319.6 31.4 323.6 28.4 327.7 30.1 331.8 32.6 335.8 33.4 339.9 32.4 343.8 29.4 347.8 27.3 351.9 30.1 355.9 28.3 360.1 31.3 364 28.3 368 26.7 372 25.1" stroke-width="9.5"/>
<path d="M8 27.3 12.1 25.8 16 27.8 20.1 27.7 24.2 26.9 28.2 25.9 32.3 26 36.3 27.7 40.4 26.6 44.4 26 48.5 26.7 52.5 26.4 56.5 27.8 60.5 29 64.6 27.5 68.7 27.2 72.7 27.5 76.7 28.2 80.8 29.1 84.8 27.5 88.9 27.8 92.9 28.8 97 28.8 101 27.5 105.1 27.8 109.1 27.8 113.2 27.9 117.2 29.3 121.2 28 125.3 28.6 129.3 28.4 133.4 28.3 137.4 30.3 141.5 29.2 145.5 30.5 149.6 30.2 153.6 29.5 157.6 31.1 161.7 29.9 165.7 28.6 169.8 29.1 173.8 29.3 177.9 28.1 181.9 28.6 186 29.2 190 28.1 194.1 29.1 198.1 30 202.2 29.2 206.2 30.1 210.2 28.8 214.3 30.6 218.3 29 222.4 30.1 226.4 28.8 230.5 30.2 234.5 29 238.6 29.5 242.6 29.5 246.7 28.3 250.7 26.8 254.8 29.7 258.8 28.4 262.9 28.9 266.9 28.4 271 29 275 27.7 279 27.9 283.1 27.9 287.1 27 291.1 26.5 295.2 26.9 299.2 27.3 303.3 26.7 307.4 27.8 311.3 25.4 315.4 26.8 319.5 27.5 323.5 27.4 327.5 25.6 331.6 25.8 335.7 27 339.7 25.4 343.7 24.1 347.8 25.5 351.8 25.6 355.8 24.8 359.9 26.4 363.9 24.2 367.9 23.5 372 25.3" stroke-width="5.4"/>
<path d="M40.8 12.8 44.8 12.5 48.8 12.8" stroke-width="4.2"/>
<path d="M56.9 14.2 60.9 16.3 64.9 15.9 69 14.6 73 14.7" stroke-width="4.2"/>
<path d="M81.2 10.9 85.2 11.6 89.2 14.7" stroke-width="4.2"/>
<path d="M97.2 16.4 101.2 15.4 105.3 13.6 109.3 15.1 113.4 13.9" stroke-width="4.2"/>
<path d="M121.4 14.9 125.4 14.7 129.5 15.7 133.5 14.7 137.5 15.9 141.6 13.9" stroke-width="4.2"/>
<path d="M161.7 15.2 165.7 14.4 169.7 14.8" stroke-width="4.2"/>
<path d="M185.9 16.5 189.9 16.3 193.9 17.3" stroke-width="4.2"/>
<path d="M202 16.7 206 15.7 210 14.9 214.1 15.5 218.1 14.5 222.1 16.2 226.1 14.7 230.2 13.8 234.2 12.8" stroke-width="4.2"/>
<path d="M242.2 12 246.3 13 250.4 15.6 254.4 15.2" stroke-width="4.2"/>
<path d="M282.6 12.4 286.6 10.5 290.7 11.1 294.8 13" stroke-width="4.2"/>
<path d="M302.9 13.6 306.8 11.2 310.9 11.5" stroke-width="4.2"/>
<path d="M319 12.3 323.1 13.1 327.1 12.9 331.1 11.3" stroke-width="4.2"/>
<path d="M12.2 20.4 16.4 17.3 20.5 13.8 24.6 12.9 28.6 13.7" stroke-width="5.1"/>
<path d="M36.7 15 40.7 13.6 44.8 13.2 48.8 13.4" stroke-width="5.1"/>
<path d="M85.1 14.7 89.1 16.1 93.2 15.7" stroke-width="5.1"/>
<path d="M101.2 16.4 105.3 15.3 109.3 16.5 113.3 16.3 117.3 17.6 121.4 14.7 125.4 16.4 129.4 17.5 133.5 17.2" stroke-width="5.1"/>
<path d="M149.6 16.6 153.6 18 157.7 17.2 161.7 14.7 165.7 15.5 169.7 14.1" stroke-width="5.1"/>
<path d="M181.8 18.8 185.9 17.4 189.9 18.5 193.9 17.3 198 16.8 202 17.7 206 17.5 210 15.8" stroke-width="5.1"/>
<path d="M222.1 16.4 226.2 17 230.2 16 234.2 13.6 238.2 12.7 242.3 13.8 246.3 14.3" stroke-width="5.1"/>
<path d="M278.6 14.1 282.6 11.7 286.6 12" stroke-width="5.1"/>
<path d="M294.8 15.2 298.9 16.2 302.9 14.6 306.9 14.4 310.9 12.2 315 13.7" stroke-width="5.1"/>
<path d="M327.2 14.5 331.2 13.2 335.2 13.3 339.2 11.7" stroke-width="5.1"/>
<path d="M347.4 13.1 351.5 15 355.6 15.1 359.6 15.3 363.7 15.3 367.7 16.4" stroke-width="3.1"/>
<path d="M7.9 28.5 12 27.7 16 29.8 20 31.2 24 32.1 28.1 31.4 32.2 29.8 36.2 31 40.2 30.9 44.3 31.4 48.3 32.3 52.4 30.9 56.4 31.3 60.5 31.5 64.5 32.8 68.5 32.5 72.6 32.1 76.6 32.8 80.7 34 84.7 32.2 88.8 33.2 92.9 31.4 96.9 31.5 100.9 32.8 105 33 109 32.9 113.1 32.6 117.1 33.2 121.2 32.9 125.2 32.1 129.3 34.2 133.3 32.6 137.4 34.1 141.4 34.4 145.5 34.3 149.5 32.5 153.6 32.3 157.6 32.6 161.7 34 165.7 33 169.8 33 173.9 33.8 177.9 31.7 181.9 32.9 186 32.1 190.1 33.2 194.1 34.1 198.2 33.8 202.2 32 206.2 31.5 210.3 32.4 214.4 33 218.4 32.3 222.5 33.3 226.5 33.6 230.5 32 234.6 33.5 238.6 32.2 242.7 33.7 246.7 31.3 250.8 33.1 254.9 32.3 258.9 31.1 262.9 31 267 31.6 271 32.2 275.1 31.8 279.1 30.9 283.2 31.2 287.3 32.9 291.3 32.4 295.3 29.7 299.3 29.4 303.4 30 307.4 30.6 311.5 29.5 315.5 30 319.5 29.1 323.6 29.1 327.6 29.1 331.7 30 335.8 30.3 339.8 28.6 343.8 29.2 347.8 28 351.9 27.5 355.9 27.1 359.9 26.7 364 28.4 368 26.2 372 25.9" stroke-width="4"/>
<path d="M8 26.6 12 26.2 16 29.6 20.1 28.9 24.1 30.3 28.2 27.8 32.2 27.8 36.3 28.1 40.3 27.8 44.4 27.9 48.4 29.2 52.4 29.4 56.5 30 60.5 28.9 64.6 28.3 68.6 31.3 72.6 31.6 76.7 29.4 80.8 29.2 84.8 30.9 88.8 29.9 92.9 31.8 96.9 31.3 101 30.8 105 29.7 109.1 30.2 113.1 32.2 117.2 30.1 121.2 31 125.3 30.7 129.3 30 133.3 32 137.4 30.2 141.5 31.1 145.5 29.6 149.6 30.8 153.6 32.5 157.6 31.2 161.7 31.3 165.7 32.8 169.8 31.5 173.8 31.9 177.9 31 181.9 30.7 186 30.9 190 29.7 194.1 31.5 198.1 31.4 202.2 30.3 206.2 31.9 210.3 32.3 214.3 29.2 218.4 31.1 222.4 31 226.5 30.1 230.5 32 234.6 31.9 238.6 32.2 242.7 31 246.7 31.5 250.8 30.9 254.8 28.5 258.8 29.7 262.8 28.3 266.9 29.3 271 29 275 29.4 279.1 30.4 283.1 29.9 287.1 29 291.2 30.3 295.2 28.1 299.2 27.6 303.4 29.5 307.3 26.9 311.4 28.8 315.5 29.6 319.5 27.6 323.5 26.9 327.6 27.7 331.7 28.9 335.7 26.8 339.7 27.8 343.8 27.1 347.8 26.5 351.8 25.6 355.9 25.6 359.9 24.7 364 26.1 368 25.7 372 24.7" stroke-width="5.6"/>
<path d="M8.1 24.2 12.2 22.2 16.2 22.8 20.3 20.1 24.4 20.1 28.4 21.9 32.4 22.3 36.5 20.9 40.5 21.8 44.6 20.6 48.6 21.3 52.6 22.1" stroke-width="5.1"/>
<path d="M60.7 21.4 64.7 22.7 68.8 21 72.8 23.3 76.9 20.4" stroke-width="5.1"/>
<path d="M129.4 21.6 133.4 21.9 137.5 23.3 141.5 22.4 145.5 23.3 149.6 24 153.6 23.6" stroke-width="5.1"/>
<path d="M161.7 22.7 165.7 20.9 169.8 23 173.8 23.2 177.8 24 181.9 22.6 185.9 21.8 190 22.9 194 22 198.1 24.6 202.1 23.5 206.1 22.6 210.1 22.4 214.2 21.8 218.2 21.3 222.3 23.3 226.3 23.2 230.3 22.7 234.4 21.2 238.4 19.7 242.4 21.4 246.5 23 250.6 23.3 254.5 20.6 258.6 22.2 262.7 22.2 266.7 21.3 270.8 22.4" stroke-width="5.1"/>
<path d="M290.9 19.9 294.9 19.4 299 20.9 303.1 19.9 307.1 20.5 311.2 20.2 315.2 20.8" stroke-width="5.1"/>
<path d="M323.3 21.1 327.3 18.9 331.4 20.3 335.4 18.2 339.5 19.3 343.5 19.6 347.6 19.2" stroke-width="4.6"/>
<path d="M355.7 20.7 359.8 20.8 363.8 19.8 367.9 21.5 372 22.9" stroke-width="5.1"/>
<path d="M12.1 24.6 16.2 23.8 20.2 24.1 24.2 25.1 28.3 23.8 32.3 24.1 36.4 23.9 40.4 23.8 44.5 24.3 48.5 25.2 52.6 24.5 56.6 25.5 60.6 26.5 64.7 25.8 68.7 24.9 72.7 26 76.8 26.5 80.9 25.1 84.9 26.6 88.9 25.9 93 26.6 97 27.4 101 26.6 105.1 27 109.1 26.5 113.2 27 117.2 26.5 121.3 27.3 125.3 27.4 129.4 26 133.4 25.7 137.4 27.7 141.5 27.2 145.5 26.6 149.6 26.2 153.6 26.4 157.6 27 161.7 26 165.7 27 169.8 26 173.8 27.8 177.9 26.1 181.9 27.5 186 27.9 190 27.2 194 26 198.1 26.9 202.1 26.1 206.2 27.8 210.2 25.8 214.3 26.7 218.3 27.1 222.3 26.3 226.4 26.3 230.4 25.8 234.5 25.9 238.5 26.1 242.6 26.1 246.6 25.3 250.6 25.4 254.7 25.8 258.7 25.9 262.7 24.8 266.8 24.7 270.9 26 274.9 25.4 278.9 24 282.9 23.5 287 24.3 291.1 24.4 295.1 24 299.2 25 303.2 24.6 307.2 23.9 311.3 24.5 315.3 22.7 319.3 22.8 323.4 23.5 327.5 23.8 331.5 22.7 335.5 23.2 339.6 23.6 343.6 22.9 347.7 22.7 351.7 23.3 355.7 21.9 359.8 22.8 363.9 22.6 367.9 23.2 372 24.4" stroke-width="3.4"/>
<path d="M11.9 31 15.8 36.7 19.8 36.3" stroke-width="5.8"/>
<path d="M27.8 39.3 31.9 37.5 36 36.7" stroke-width="6"/>
<path d="M68.4 37.4 72.5 37.7 76.5 39.3 80.5 39.7 84.6 41.1" stroke-width="6"/>
<path d="M92.7 38 96.8 38.6 100.8 40.9" stroke-width="6"/>
<path d="M121.1 41.2 125.2 39.8 129.2 39.4 133.3 40.3 137.3 41.9 141.4 39.4 145.5 39.7 149.5 39.5 153.6 39.5 157.6 39.4 161.7 39.8" stroke-width="6"/>
<path d="M169.8 42.2 173.9 40.9 177.9 40.6 182 40.3 186.1 40.7 190.1 38.4 194.2 40.3 198.2 38.4 202.3 38.7" stroke-width="6"/>
<path d="M210.4 40.7 214.5 39.9 218.5 40.7 222.6 40.6" stroke-width="6"/>
<path d="M230.7 39.6 234.8 42.5 238.8 40.6" stroke-width="6"/>
<path d="M267.2 39.1 271.2 36.5 275.3 38.8 279.3 39.1 283.4 39.5 287.4 38.9 291.5 40.3 295.5 37.9 299.6 38.3 303.6 37.2" stroke-width="6"/>
<path d="M323.8 36.1 327.9 38.6 331.9 36.4 336 37.9 340 37.8" stroke-width="6"/>
<path d="M348 34 352 33.3 356 32.5 360.1 31.6 364.1 31.8 368.1 30.6" stroke-width="3.6"/>
<path d="M15.8 35.3 19.8 38.4 23.8 39.5 27.9 37.3 31.9 38.8 35.9 40.3 39.9 41.6 44 41.3 48.1 39.7 52.1 40.7 56.3 37.3 60.3 37.3 64.3 38.2 68.4 38.5 72.4 38.7" stroke-width="6.4"/>
<path d="M80.4 43.6 84.5 43.8 88.7 39 92.7 38.6 96.7 42.1 100.8 41.7 104.9 39.8 108.9 40.4 113 39.6 117 41.6 121.1 41.1 125.2 40.6 129.2 40.4" stroke-width="6.4"/>
<path d="M153.6 40.8 157.6 40.4 161.7 44.1 165.8 43.4" stroke-width="6.4"/>
<path d="M173.9 40.1 177.9 40.5 182 41.3 186.1 40 190.1 40.3 194.2 40.1 198.2 40.3 202.3 40.5" stroke-width="6.4"/>
<path d="M222.6 38.8 226.6 38.7 230.7 39 234.8 41.9 238.9 41.2 242.9 41.2 246.9 38.6 250.9 38.1 255.1 40.7" stroke-width="6.4"/>
<path d="M283.5 41.3 287.5 40.8 291.6 40.9" stroke-width="6.4"/>
<path d="M299.5 36.6 303.6 36.5 307.7 37.5 311.7 38.3" stroke-width="6.4"/>
<path d="M340.1 39.7 344.1 38.1 348 35.3 352.1 35.7 356.1 35.5" stroke-width="5.2"/>
<path d="M12.2 22.1 16.2 22.2 20.3 21.1 24.4 20.1 28.4 21.9 32.5 19.3 36.5 21.5 40.6 18.8" stroke-width="6.1"/>
<path d="M48.6 21.4 52.7 20.4 56.7 20.7 60.7 21.7 64.7 23.1 68.8 22 72.8 22.4 76.9 20.8 81 19.5 85 19.5 89 21.5 93.1 20.4 97.1 22.2" stroke-width="6.1"/>
<path d="M109.2 20.4 113.2 22.5 117.3 23.4 121.3 20.6 125.3 23.1 129.4 22.4 133.4 21.1" stroke-width="6.1"/>
<path d="M141.5 21.3 145.5 21.9 149.6 24.4" stroke-width="6.1"/>
<path d="M157.7 22 161.7 21.7 165.7 19.8 169.8 21.8 173.8 23.3 177.8 23.4 181.9 21.9 185.9 22.9 190 22.6 194 22.4" stroke-width="6.1"/>
<path d="M214.2 24 218.2 23.1 222.3 23.5 226.3 23" stroke-width="6.1"/>
<path d="M234.4 21.5 238.4 22.2 242.4 19.3 246.4 19.4 250.5 19.7 254.6 22.2 258.7 23 262.7 23 266.7 20.7 270.7 21.2 274.7 20 278.7 18.6 282.8 20.4 286.8 18 290.9 18.3 295 20.9 299 20.9 303.1 20.3 307.1 19.4 311.1 19.5" stroke-width="6.1"/>
<path d="M323.3 19.7 327.3 18.4 331.3 16.7" stroke-width="6.1"/>
<path d="M339.4 17.8 343.5 18.2 347.6 19.2 351.6 17.6 355.7 18.6 359.7 19.5 363.8 20.6 367.9 21 371.9 20.7" stroke-width="6.1"/>
<path d="M16.2 23.5 20.2 24.8 24.2 24.3 28.3 25.4 32.3 24.4 36.4 24.8 40.4 25.8 44.5 25.1 48.5 26 52.5 25.3 56.6 25.1 60.6 26.6 64.7 24.6 68.7 26.2 72.8 25.9 76.8 26.2 80.8 26.5 84.9 26.2 88.9 26.1 92.9 27.3 97 27.2 101 26.7 105.1 26.2 109.1 26.8 113.2 26.2 117.2 25.6 121.3 26.3 125.3 26.9 129.3 27.1 133.4 27.1 137.4 26.9 141.5 27.1 145.5 25.9 149.6 26.2 153.6 26.3 157.6 27.9 161.7 26.8 165.7 26 169.8 25.8 173.8 26.3 177.9 27.2 181.9 26.4 185.9 26.2 190 27.6 194 26.8 198.1 26.2 202.1 27 206.2 27.1 210.2 27 214.3 26.9 218.3 26 222.4 27.3 226.4 26 230.4 25.4 234.5 25.8 238.5 25.2 242.5 25.5 246.6 24.7 250.6 24.8 254.7 25.6 258.7 25.1 262.7 24.7 266.8 26.1 270.8 24.3 274.9 24.5 278.9 24.8 283 24.1 287 23.4 291.1 25.1 295.1 24.6 299.1 23.8 303.2 25.2 307.2 23.4 311.3 24.1 315.3 22.7 319.4 23.5 323.4 23.2 327.4 22.5 331.5 22.7 335.5 22.1 339.6 23 343.6 22.9 347.7 22.4 351.7 22.9 355.7 21.9 359.8 22.6 363.9 23.3 367.9 23.9 372 23.6" stroke-width="3.6"/>
<path d="M15.9 30.8 20 31.6 24 31.8 28 32.7 32.1 31.4 36.2 31.9 40.2 32.2 44.2 32.8 48.3 31.9 52.3 32.8 56.4 33.1 60.5 31.8 64.5 33.5 68.5 32.2 72.6 33.5 76.6 33.4 80.6 35.3 84.7 34.3 88.7 34.5 92.8 34.1 96.9 34.2 100.9 34.4 105 34 109 35.1" stroke-width="3.5"/>
<path d="M125.2 33.3 129.3 33.3 133.3 34.9 137.4 34.4 141.4 34.8 145.5 33.9 149.5 34.9 153.6 34.2 157.6 33.5 161.7 34.3 165.8 34.5 169.8 33.9 173.9 34.6 177.9 34.3" stroke-width="3.5"/>
<path d="M186 34.3 190.1 34.7 194.1 33.1 198.2 34.2 202.2 33.8 206.3 33.1 210.3 34.4 214.4 33.5 218.4 34.6 222.5 34.3 226.5 34.1 230.6 33.4 234.6 34.2 238.7 33.8 242.8 35 246.8 33.9 250.8 32.9 254.9 32.6 258.9 31.8 263 32.7" stroke-width="3.5"/>
<path d="M271 31.8 275.1 31.4 279.2 32.5 283.2 33.2 287.3 32.6 291.3 33.6" stroke-width="3.5"/>
<path d="M299.3 30.4 303.4 32.1 307.4 30.8 311.5 32.6 315.6 32.2 319.6 31.6 323.6 30.5 327.7 29.9 331.8 31.6 335.8 32 339.8 31 343.8 29.5 347.9 30.6 351.9 30.2 356 29.9 360 28 364 27.4" stroke-width="2.4"/>
<path d="M11.8 34.3 15.8 35.7 19.8 38.1 23.7 41" stroke-width="3.5"/>
<path d="M35.9 39.3 40 40.5 44 40.4 48.1 40.2 52.2 38.8" stroke-width="3.5"/>
<path d="M76.4 41.6 80.5 42.4 84.5 42.7 88.6 40.5" stroke-width="3.5"/>
<path d="M104.8 41.3 108.9 42 113 41.2" stroke-width="3.5"/>
<path d="M161.7 42.5 165.8 43 169.8 43.2 173.9 40.7 177.9 40.2 182 40.7 186.1 40.1 190.1 41.4" stroke-width="3.5"/>
<path d="M198.2 40.7 202.3 39 206.4 41 210.4 39.9 214.5 40.6" stroke-width="3.5"/>
<path d="M243 43.1 247 41.2 251 41.4 255.1 40.4 259.1 40.2" stroke-width="3.5"/>
<path d="M275.3 38.3 279.3 38.9 283.5 41.2 287.5 40.9 291.5 40.5 295.5 38.1 299.6 38.7 303.6 38.3 307.7 38.7 311.7 38.7 315.8 38.6" stroke-width="3.5"/>
<path d="M323.9 38 327.9 38.8 332 38.4 336 39.1" stroke-width="3.5"/>
<path d="M344 37 348.1 37.3 352.1 36.2 356.1 34.3 360.1 34.4" stroke-width="2.7"/>
<path d="M11.8 33 15.8 34.4 19.8 38.6 23.8 39 27.8 39.9 32 36.4" stroke-width="6.1"/>
<path d="M40 39.6 44.1 38.8 48.1 38.9" stroke-width="6.1"/>
<path d="M60.3 39.1 64.3 39.5 68.4 38" stroke-width="6.1"/>
<path d="M76.5 40.1 80.5 41.9 84.6 40" stroke-width="6.1"/>
<path d="M92.7 39.3 96.8 39.2 100.8 41.3 104.9 40 108.9 41.3 113 41.1 117 42.1" stroke-width="6.1"/>
<path d="M149.5 41.7 153.6 41.8 157.6 42.4 161.7 43.3" stroke-width="6.1"/>
<path d="M169.8 40.6 173.9 41.5 177.9 38.7 182 40.3" stroke-width="6.1"/>
<path d="M194.2 40.2 198.2 40.9 202.3 40.3 206.3 37.7 210.4 40 214.5 39.7 218.6 41.8 222.6 40.9 226.6 38.8 230.7 41.1 234.8 40.1 238.8 40.8 242.9 42.6 246.9 40.2 251 39 255 38.3 259.1 38.2 263.1 37.8 267.2 39" stroke-width="6.1"/>
<path d="M275.2 37.4 279.3 37.9 283.4 39.7 287.5 40.8 291.6 41.7 295.5 37.8 299.6 38 303.6 38" stroke-width="6.1"/>
<path d="M315.8 38.9 319.8 38.4 323.9 38.9" stroke-width="6.1"/>
<path d="M332 39.4 336 38.2 340.1 39.3 344 36.9" stroke-width="5.8"/>
<path d="M27.8 41.3 31.8 42.1 35.9 40.3 39.8 44.3 43.9 43.4 48 43.1" stroke-width="4.5"/>
<path d="M68.3 42.5 72.3 43.2 76.3 45.7" stroke-width="4.5"/>
<path d="M92.6 42.8 96.7 44.6 100.7 44.7 104.8 45.9" stroke-width="4.5"/>
<path d="M112.9 45 117 44.6 121.1 43" stroke-width="4.5"/>
<path d="M129.2 45.7 133.2 44.8 137.3 44.7" stroke-width="4.5"/>
<path d="M145.4 44.4 149.5 43.9 153.6 42.9 157.6 42.6 161.7 45.4 165.8 46.8 169.8 46 173.9 44.7 178 44 182 43.1 186.1 43 190.2 44.1" stroke-width="4.5"/>
<path d="M243 46.2 247 44.4 251.1 43.6" stroke-width="4.5"/>
<path d="M271.3 41.3 275.4 41.2 279.5 43.3 283.6 44.8 287.7 45.8 291.6 43.1" stroke-width="4.5"/>
<path d="M299.6 40.5 303.7 40.6 307.8 42.3 311.9 43.1" stroke-width="4.5"/>
<path d="M319.9 40.1 323.9 40.2 328 40.8 332 40.8 336.1 42.5 340.1 41 344.1 39.9 348.2 39.9 352.1 37.4 356.2 36.6 360.2 35.7" stroke-width="3.5"/>
<path d="M11.9 32 15.8 35.2 19.9 34.7 23.8 37.4 28 34.5 32 34.4 36 35.6 40.1 35.7 44.1 38.4" stroke-width="4.8"/>
<path d="M52.3 35.6 56.3 37 60.3 37.5 64.4 36.4 68.4 36.8 72.5 37.8 76.5 39.8 80.5 39.3 84.6 38.3 88.7 37.7 92.7 38.5 96.8 37.4 100.8 39 104.9 39.1 109 38.2" stroke-width="4.8"/>
<path d="M121.1 39.7 125.2 38.3 129.2 39.9 133.3 37.2 137.3 40" stroke-width="4.8"/>
<path d="M145.5 38.7 149.5 38.7 153.6 38.5 157.6 37.4" stroke-width="4.8"/>
<path d="M177.9 37.8 182 37.5 186 38.4 190.1 39 194.2 39.1" stroke-width="4.8"/>
<path d="M202.3 38.5 206.3 36.3 210.4 37.4 214.4 37.6 218.5 37.4 222.6 38.8 226.6 37.3 230.7 38.6 234.8 39.5 238.8 39.4 242.9 39.3 246.9 37.4 250.9 36.5 255 37.2 259 35.4" stroke-width="4.8"/>
<path d="M271.1 35.2 275.2 34.8 279.2 35.3 283.4 38.8 287.4 38.7 291.4 36.5" stroke-width="4.8"/>
<path d="M299.5 36 303.5 34.3 307.6 35.1 311.7 36.8" stroke-width="4.8"/>
<path d="M331.8 34.7 335.9 36.3 339.9 34.4 344 35.7 348 32.5 352 34.1 356.1 33.3 360.1 33.1 364.1 30.8 368.1 30.5 372.1 28.4" stroke-width="4.8"/>
<path d="M18 55.3 22.1 49 26.2 53.7 30.2 52.9 34.3 50.9 38.4 50 42.4 48.3 46.5 50.6 50.6 48.4 54.6 50.1 58.7 49.9 62.7 46.9 66.8 46.3 70.9 48.2 74.9 50.2" stroke-width="9.5"/>
<path d="M83.1 51.7 87.2 50.8 91.2 51.6 95.2 45.9 99.4 50.7 103.4 50.8 107.5 49.1 111.5 48.3 115.5 46.6 119.6 48.3 123.7 47.8 127.8 48 131.9 49.3 135.9 46.2 139.9 44.5 144.1 49.5 148.1 48.4 152.2 49.7 156.2 44.7 160.2 45.5 164.4 47.1 168.3 44.3 172.5 46.2 176.6 48.5 180.6 45.7 184.7 45.9 188.8 46.3 192.8 45 196.9 44.8 201 46.6 205.1 48.6 209.1 45.3 213.2 44.8 217.3 45.1 221.3 44.4 225.4 43.2 229.5 43.8 233.5 42.4 237.7 45.4 241.7 43.2 245.8 45.5 249.9 43.9 253.9 42.8 258 41.9 262.1 43.6 266.2 44.3 270.3 45.2 274.4 46.1 278.4 42.5 282.5 46.9 286.6 44.7 290.6 43.7 294.7 43.1 298.8 41.8" stroke-width="9.5"/>
<path d="M306.9 43 311 42.8 315.1 42.7 319.2 43.1 323.3 42.9 327.4 44.5 331.4 45.3 335.5 43.2 339.6 43.5 343.7 43 347.7 45.4 351.8 44.7 355.9 46.5 360 44.1 364 47.5" stroke-width="9.5"/>
<path d="M18 57.7 22.1 57 26.1 55.3 30.2 54.3 34.3 52.9 38.4 55.9 42.4 56.3 46.5 53.4 50.6 54.6 54.6 55.8 58.7 54.3 62.8 53.4 66.8 53.4 70.9 53.2 75 55.9 79 52 83.1 55 87.2 56.5 91.3 53.4 95.4 57.1 99.4 54.4 103.5 52.7 107.6 54.8 111.6 52.7 115.7 53.1 119.8 53 123.9 54.2 127.9 52.7 132 53.4 136.1 55.7 140.1 52.6 144.3 55.8 148.3 54.5 152.3 52.8 156.5 54.7 160.5 53.8 164.5 52.5 168.7 54.5 172.7 52.2 176.7 52.2 180.8 50.7 184.8 50.4 188.9 50.6 193 52.3 197.1 50.7 201.2 51.8 205.3 53.4 209.4 53.9 213.4 50.6 217.4 48.8 221.5 50.9 225.5 48.3 229.6 50.1 233.7 50.3 237.8 48.9 241.8 49.5 246 52.6 250 50.6 254 47.7 258.1 48.8 262.2 50.6 266.3 49.8 270.3 49.1 274.5 51.6 278.5 51.9 282.5 47.1 286.7 51.1 290.7 47 294.8 51.2 298.9 50.6 302.9 50.7 307 49.9 311.1 47.4 315.2 50.8 319.2 49 323.3 47.8 327.4 48.4 331.4 49.8 335.5 51 339.6 51 343.6 51.3 347.7 47.2 351.8 47.2 355.9 46.3 359.9 49.9 364 51.2" stroke-width="9.5"/>
<path d="M18 56.3 22 59.6 26.1 59.4 30.2 58.6 34.3 62 38.3 61.9 42.4 59.3 46.5 60.4 50.6 61 54.7 61.7 58.7 60.6 62.8 62.5 66.9 61.9 71 62.2 75 58.5 79.1 60.9 83.2 58.5 87.3 60.7 91.4 62.6 95.5 60.3 99.6 61.3 103.6 58.2 107.7 61.3 111.8 61.2 115.8 59.6 120 61.8 124 61.2 128.1 60.8 132.2 59.7 136.3 61.2 140.3 58 144.4 59.9 148.5 59.9 152.5 57.4 156.7 61.5 160.7 58.4 164.8 60.3 168.8 58.8 172.8 56.5 176.9 57.7 181.1 59.1 185.1 57.6 189.1 57.5 193.2 57 197.2 56.1 201.4 58.1 205.5 58.4 209.5 56.3 213.5 55.2 217.6 56.2 221.7 57 225.8 57.5 229.7 53.7 234 58.6 237.9 54 242 55.8" stroke-width="9.5"/>
<path d="M254.2 56.1 258.3 54.8 262.3 55 266.4 54.7 270.4 54.1 274.5 53.5" stroke-width="9.5"/>
<path d="M282.7 56.5 286.7 52 290.8 52.9 294.9 55.2 298.9 54 303 55.2 307.1 58 311.1 55.4 315.2 54.4 319.2 56.4 323.3 53.9 327.4 53.4 331.4 55.2 335.5 53 339.6 52.5 343.6 52 347.7 50.7 351.8 51.8 355.8 51 359.9 50.6 364 50.8" stroke-width="9.5"/>
<path d="M22 62.4 26.1 65.5 30.2 65.7 34.2 67.3 38.3 67.5 42.4 66.4" stroke-width="5"/>
<path d="M71.1 70.6 75.2 68.9 79.3 70" stroke-width="5"/>
<path d="M91.5 65.9 95.6 68.4 99.7 69.6 103.8 68.3 107.9 69 112 68.2 116 67.7 120.1 67.4" stroke-width="5"/>
<path d="M181.3 66.8 185.3 64.9 189.3 63.4 193.4 64 197.5 64.2" stroke-width="5"/>
<path d="M205.6 62.8 209.7 62.9 213.8 63.3 217.8 63.3 221.9 61.8" stroke-width="5"/>
<path d="M230 63.6 234.2 65.9 238.2 64.8 242.3 64.7 246.3 62.8 250.3 62.3 254.4 62.8 258.5 65.4 262.6 65.4 266.6 63.9 270.6 62.2 274.7 61.4 278.7 62.1 282.8 60.3 286.8 61" stroke-width="5"/>
<path d="M18 58.3 22.1 57 26.1 56.5 30.2 59 34.3 59.8 38.4 59.1 42.4 59.8 46.5 60.3 50.6 58.3 54.7 57.9 58.7 59.3 62.8 58.7 66.9 58.6 71 60.7 75.1 59.8 79.1 60.3 83.2 59.2 87.3 58.5 91.4 58.8 95.5 60.8 99.5 58.2 103.6 60.4 107.7 58.8 111.8 59.3 115.9 60.3 119.9 59.7 124 58 128 56.9 132.1 57.6 136.2 59.6 140.3 58.3 144.3 57.8 148.4 57.7 152.5 58 156.5 57 160.6 57.1 164.7 58.9 168.7 56.3 172.9 58.2 176.9 57.1 181 58 185 56.2 189.1 55.2 193.1 54.6 197.2 55.2 201.3 56.9 205.4 54.9 209.4 54 213.5 54.6 217.6 55.9 221.6 54.8 225.8 56.6 229.8 55.3 233.8 54.2 237.9 55.8 242 54.8 246.1 55.7 250.1 54.1 254.2 53.3 258.3 55 262.3 55.5 266.4 55.3 270.4 54 274.5 52.9 278.6 53.5 282.7 54.2 286.7 52.5 290.8 54.5 294.8 52.6 298.9 54.1 303 54.1 307.1 55.7 311.1 53.8 315.2 55.5 319.2 54.3 323.3 52.4 327.4 52.8 331.4 53.2 335.5 53.1 339.6 53.1 343.6 52.2 347.7 50.8 351.8 53.9 355.8 50.3" stroke-width="4.4"/>
<path d="M18 56.7 22 60.8 26.1 61.7 30.2 61.4 34.3 62.7 38.3 61.7 42.4 62.9 46.5 61.2 50.6 62 54.7 61.2 58.7 61.2 62.8 62.9 66.9 64 71 62.2 75.1 61.9 79.2 63.7 83.2 60.7 87.3 62.9 91.4 62.3" stroke-width="5.7"/>
<path d="M128.1 62 132.2 62.9 136.3 60.8 140.4 62.5 144.5 62.4 148.5 61" stroke-width="5.7"/>
<path d="M156.6 59.2 160.7 60.4 164.8 61.4 168.9 61.8 173 61.1 177 60.3 181.1 60.2" stroke-width="5.7"/>
<path d="M217.7 59.3 221.8 58.9 225.8 58.6 229.9 59.2 233.9 57.1 238.1 59.9 242.1 57.5" stroke-width="5.7"/>
<path d="M250.2 58.2 254.3 58.9 258.4 59.4 262.4 58.4 266.4 57.1 270.5 57.5 274.6 57.9 278.6 55.7" stroke-width="5.7"/>
<path d="M290.8 56.5 294.9 55.1 299 58.2 303 56.6" stroke-width="5.7"/>
<path d="M311.1 56.4 315.2 58.9 319.3 58.4 323.3 57.3 327.4 55.3 331.4 55.2 335.5 56.5 339.5 56.7 343.6 55.7" stroke-width="5"/>
<path d="M351.7 55.3 355.8 54.6 359.9 54.6 364 52.8" stroke-width="5.7"/>
<path d="M26.1 65 30.2 67.3 34.2 67.9 38.3 67.5" stroke-width="4.7"/>
<path d="M46.5 68.1 50.6 67.3 54.7 67.5 58.8 70.5" stroke-width="4.7"/>
<path d="M67 71.4 71.1 72.4 75.2 71.4" stroke-width="4.7"/>
<path d="M83.3 67.6 87.4 68.8 91.5 69.3 95.7 71.4 99.7 70.6 103.8 71.6 107.9 70.8 112 70.8" stroke-width="4.7"/>
<path d="M132.4 69.1 136.5 70.4 140.6 71.3 144.7 69.4" stroke-width="4.7"/>
<path d="M152.8 69 156.9 69.6 160.9 67.5 165.1 69.2 169.1 69.2 173.2 68.6 177.3 69 181.3 67.4" stroke-width="4.7"/>
<path d="M189.4 64.8 193.5 64.9 197.5 64.4" stroke-width="4.7"/>
<path d="M205.7 65.7 209.8 65.9 213.8 65.6 217.9 64 221.9 63 226 63.7" stroke-width="4.7"/>
<path d="M250.4 64.9 254.5 65.5 258.6 67.6" stroke-width="4.7"/>
<path d="M286.9 64.1 290.9 64.5 295 62.7 299 63.4 303.1 65.1 307.1 65.6 311.2 65.9 315.2 65.6 319.3 66.7 323.3 64.9 327.4 62.5 331.4 61.9 335.5 63.3 339.5 63.4 343.6 61.4 347.7 59.5" stroke-width="3.8"/>
<path d="M355.8 58.7 359.8 57.7 363.9 54.8" stroke-width="4.7"/>
<path d="M18 57.4 22.1 56.7 26.1 55.4 30.2 58 34.3 58.3 38.4 58.7 42.4 57.4 46.5 56.1 50.6 57.2 54.7 57.9 58.7 58.3 62.8 57.6 66.9 57.4 71 57.6 75 57.8 79.1 57.2 83.2 58.7 87.2 56.5 91.3 57.2 95.4 57.7 99.5 57.7 103.6 58.1 107.6 57.5 111.7 58.1 115.8 57.4 119.8 55.1 123.9 56.3 128 56.5 132.1 56.8 136.1 55.2 140.2 54.6 144.3 55.4 148.3 55.3 152.5 57.3 156.5 55.8 160.6 55.9 164.6 55.3 168.7 56.5 172.7 54.2 176.8 53.5 180.9 53.5 185 54.1 189 54.1 193.1 53.3 197.2 53.9 201.3 54.9 205.3 53.3 209.4 53.2 213.5 54.6 217.6 54.9 221.6 53.6 225.6 52.4 229.8 53.8 233.8 53.3 237.8 51.8 242 53.6 246 54.2 250.1 53.5 254.2 53.5 258.2 53.8 262.3 53.7 266.4 53.7 270.4 51.2 274.5 51.6 278.5 51.7 282.6 51.1 286.7 51.3 290.8 52.7 294.8 50.4 298.9 50.9 302.9 51 307 51.2 311.1 52.5 315.2 53 319.2 52 323.3 51.9 327.4 51.4 331.4 50.7 335.5 52 339.6 51 343.6 50.1 347.7 49.7 351.8 51.3 355.8 50.2 359.9 52.2 364 50.2" stroke-width="5.7"/>
<path d="M18 54.1 22.1 56.8 26.1 55.6 30.2 57.1 34.3 56.8 38.4 55 42.4 56.7 46.5 55.9 50.6 55.9 54.6 54.7 58.7 55.1 62.8 56.3 66.9 55.4 70.9 55.2 75 56.4 79.1 56 83.2 56.4 87.2 55.8 91.3 56.1 95.4 56.7 99.5 56.2 103.5 54.7 107.6 54.9 111.7 55.5 115.7 55.4 119.8 55.1 123.9 55.9 128 55.6 132 53.8 136 53.2 140.1 53.9 144.2 54.3 148.3 55.4 152.4 53.6 156.4 54 160.5 54.4 164.6 54.7 168.6 52.1 172.8 54.5 176.8 53.3 180.9 53.6 184.9 53.6 189 52.7 193.1 52.7 197.1 52.2 201.2 53 205.3 52.5 209.3 51.7 213.4 51.5 217.5 51.6 221.5 50.5 225.6 52.4 229.7 52.1 233.8 51.7 237.8 49.9 241.9 49.7 246 51.4 250 50 254.1 51.7 258.2 50.7 262.2 49.7 266.3 49.7 270.4 49.3 274.5 50.9 278.5 49.4 282.6 49.3 286.6 48.7 290.7 50 294.8 50.3 298.9 49 302.9 50.7 307 49.7 311.1 49.5 315.1 49.9 319.2 49 323.3 49.7 327.4 49.7 331.4 48.7 335.5 49.5 339.6 49.1 343.6 50.6 347.7 48.6 351.8 50.9 355.8 50.8 359.9 50.7 364 49" stroke-width="5.1"/>
<path d="M18 61 22 64.4 26.1 64.8 30.2 65 34.2 67.7 38.3 68.2 42.4 68 46.5 66.3" stroke-width="4.4"/>
<path d="M79.3 69.7 83.3 68.4 87.4 66.3 91.5 66.7 95.6 68.5 99.7 69.7 103.8 69.3 107.9 68.1 112 69.7 116.1 68.9 120.1 67.6" stroke-width="4.4"/>
<path d="M132.4 68.8 136.4 67.3 140.6 69.2 144.7 69.4 148.8 69.5 152.8 68.3 156.8 66.2 160.9 67.7 165 68.6 169.1 68.3 173.2 68.8 177.2 66.6 181.3 67.5" stroke-width="4.4"/>
<path d="M193.4 62.7 197.5 63.5 201.6 63.5 205.6 63.1 209.7 62.9 213.7 62.3 217.8 62.2 221.9 63.2 226 64" stroke-width="4.4"/>
<path d="M250.3 62.9 254.4 64.9 258.5 66.3 262.6 65.8" stroke-width="4.4"/>
<path d="M327.4 61.2 331.4 60.1 335.5 61.6 339.5 61.7 343.6 61.1 347.7 59.4 351.7 58.4 355.8 58.3 359.8 57.2" stroke-width="2.7"/>
<path d="M18 55.1 22.1 54.1 26.1 56 30.2 55.4 34.3 56.7 38.4 54.5 42.4 55.2 46.5 55.6 50.6 56.1 54.6 55.5 58.7 54.5 62.8 55.6 66.9 55.4 70.9 53.9 75 54.7 79.1 55.6 83.2 56.2 87.2 56.1 91.3 55.2 95.3 54.1 99.4 54.5 103.5 55.9 107.6 55.6 111.7 54.8 115.7 54.3 119.8 53.9 123.8 52.7 127.9 54.2 132 53.1 136 53 140.1 53.2 144.3 55.4 148.3 54.2 152.3 52.5 156.4 54.1 160.5 52.3 164.6 54.4 168.6 53.3 172.7 52 176.8 52.6 180.8 52.5 184.9 51.4 189 51.8 193 51.7 197.1 51.6 201.2 51.3 205.2 51.1 209.3 51.6 213.4 50.9 217.4 50.8 221.6 52 225.6 52.3 229.6 50.2 233.8 51.9 237.8 51.6 241.9 50.6 246 51.3 250 50.1 254.1 51.3 258.2 51.9 262.2 50.9 266.3 50.2 270.4 49.1 274.4 50.5 278.5 50 282.6 50.6 286.7 51.2 290.7 50.7 294.8 50.6 298.9 50.2 302.9 50.3 307 49.6 311.1 48.9 315.1 48.6 319.2 48.7 323.3 49.9 327.4 50.3 331.4 49.5 335.5 50.1 339.6 48.4 343.6 47.7 347.7 48.7 351.8 50.2 355.9 49.9" stroke-width="4"/>
<path d="M18 58.8 22 60.8 26.1 59.8 30.2 60.8 34.3 60.9 38.3 61 42.4 61.9" stroke-width="5.8"/>
<path d="M50.6 62.2 54.7 61.9 58.8 61.7 62.9 64.1 66.9 63.5 71 65.4 75.1 63.4 79.2 63.3 83.2 61.5 87.3 62.5 91.4 60.6" stroke-width="5.8"/>
<path d="M99.6 63.2 103.6 61.8 107.8 64.6 111.9 64.2 115.9 63.6 120 62.5 124 61.5 128.1 62.4 132.2 61.5 136.3 63.4 140.4 62.1 144.4 61.1 148.6 64 152.5 60" stroke-width="5.8"/>
<path d="M160.7 60.2 164.8 60.6 168.9 62.5 173 62.7 177 60.7 181.1 61.8" stroke-width="5.8"/>
<path d="M193.3 59.1 197.3 58.6 201.4 59.3 205.5 59.3 209.6 59.4 213.6 57.8 217.7 58.8" stroke-width="5.8"/>
<path d="M225.9 59.6 229.9 57.6 234 59.9 238 58.1 242.1 59.9 246.1 57.5 250.2 58.3 254.3 57.7 258.4 59.2 262.5 60.5 266.5 59 270.5 56.9 274.6 57.6 278.6 55.7 282.7 56.2 286.8 56.8 290.8 56.2 294.9 58.4 298.9 57 303 57.4 307.1 58.4 311.1 59.7 315.2 58.7 319.3 58.2 323.3 57.6 327.4 56.8 331.4 57.1 335.5 55.8 339.6 55.4" stroke-width="5.3"/>
<path d="M347.7 55.7 351.8 53.8 355.8 52.9 359.9 54.2 364 51.8" stroke-width="5.8"/>
<path d="M18 53.2 22.1 52.9 26.1 53.9 30.2 52.6 34.3 52.9 38.4 53.4 42.4 54.4 46.5 54.3 50.6 53.8 54.6 53.7 58.7 52.9 62.8 52.2 66.8 51.7 70.9 51.8 75 53.3 79 52.9 83.1 52.9 87.2 53.4 91.2 51.7 95.3 51.3 99.4 53.7 103.4 51.3 107.5 53 111.6 53.2 115.7 53.2 119.8 53.4 123.8 52.3 127.9 51.8 132 52.4 136 50.8 140.1 52.5 144.1 51.1 148.2 50.2 152.3 52.7 156.4 52.3 160.4 51.4 164.5 50 168.6 51.5 172.6 49.9 176.7 50.6 180.7 49.5 184.8 50.2 188.9 50.2 193 50 197.1 50.8 201.1 50.7 205.2 50.5 209.2 49 213.3 49.5 217.4 49.6 221.5 48.9 225.6 50.5 229.6 48.8 233.7 49.5 237.7 47.9 241.8 48.5 245.9 47.4 250 48.9 254.1 49 258.1 48.1 262.2 47.9 266.3 47.9 270.3 47.7 274.4 48.2 278.5 46.6 282.5 47.1 286.6 48.8 290.7 46.3 294.7 46.3 298.8 47.4 302.9 47.3 307 48.1 311.1 48.1 315.1 48.1 319.2 47.4 323.3 47.5 327.4 46.9 331.4 47.2 335.5 47.4 339.6 46.8 343.7 46.7 347.7 46.6 351.8 48.3 355.9 47.4 359.9 48.5 364 49.2" stroke-width="4.9"/>
<path d="M22.1 51.1 26.2 51.8 30.2 52 34.3 51.7 38.4 50.3 42.4 50.7 46.5 51 50.6 51.3 54.6 50.7 58.7 50.3 62.8 49.9 66.8 49.5 70.9 49.6 75 50.8 79 49.5 83.1 49.5 87.1 49.6 91.2 50.2 95.3 50.8 99.4 50.5 103.4 50 107.5 49.2 111.5 48.8 115.6 49.2 119.7 49.3 123.7 48.7 127.8 48.3 131.9 48.9 135.9 48.9 140 47.9 144 48 148.1 47.1 152.2 48.6 156.2 47.8 160.3 47.7 164.4 48.9 168.4 47.3 172.5 47.9 176.6 48 180.7 47.3 184.8 48.3 188.8 47.9 192.9 47.6 197 47.9 201.1 48.3 205.1 48.5 209.2 47.1 213.3 48.1 217.3 46.5 221.4 47.8 225.5 47.4 229.5 46.1 233.6 46.8 237.6 45 241.7 45.5 245.8 45.7 249.9 46.4 254 44.9 258 44.5 262.1 44 266.2 45.2 270.3 46.2 274.4 46.2 278.4 46.3 282.5 46.2 286.6 45.5 290.7 44.7 294.7 44 298.8 44.7 302.9 44.9 307 44.4 311 43.2 315.1 44.3 319.2 45 323.3 45.3 327.4 45.4 331.4 44.6 335.5 44.1 339.6 44.8 343.7 45.9 347.7 45.1 351.8 44.9 355.9 46.5 359.9 47.7 364 47" stroke-width="3.9"/>
<path d="M22.1 45.5 26.2 46.1 30.3 43.9 34.3 41.3" stroke-width="5"/>
<path d="M42.4 41.8 46.5 42.7 50.5 42.6" stroke-width="5"/>
<path d="M74.8 38.8 78.9 40.5 82.9 40.2 87 42.9 91 39.7 95.1 39.9" stroke-width="5"/>
<path d="M103.2 38 107.2 38.7 111.3 39.3 115.3 38.5 119.4 39.9 123.5 39.9 127.6 39.7 131.6 38.4 135.7 39" stroke-width="5"/>
<path d="M151.9 37.8 155.9 37 160 38 164 36.8 168.1 35.2" stroke-width="5"/>
<path d="M176.2 36 180.4 37.8 184.5 39.1 188.6 40.1 192.6 39.5 196.7 38.9 200.8 38.7 204.8 37.6 208.9 39.4" stroke-width="5"/>
<path d="M278.3 37.9 282.3 35.3 286.4 35.5 290.5 37.2 294.6 34.5 298.7 35.4 302.8 33.1 306.9 32.4 311 32.2 315.1 33.6 319.1 32.9 323.2 36 327.3 37.3 331.4 37.1 335.5 36.8" stroke-width="4.8"/>
<path d="M343.7 37.4 347.8 37.3 351.9 40" stroke-width="3.9"/>
<path d="M18.1 48.1 22.1 46.3 26.2 43.4 30.3 41.8 34.3 40 38.4 39.8 42.4 40.5 46.5 41.4 50.5 41.2" stroke-width="3.7"/>
<path d="M70.8 37.2 74.8 37.6 78.9 37.5 82.9 40 87 41.6 91 40.1 95.1 38.7 99.1 36.8" stroke-width="3.7"/>
<path d="M123.5 39.5 127.5 39 131.5 37.3" stroke-width="3.7"/>
<path d="M143.7 35.8 147.7 35.1 151.8 36.1" stroke-width="3.7"/>
<path d="M164 34.5 168.1 35.1 172.1 35.1 176.2 34.9 180.3 35 184.4 36.1 188.5 37.6 192.6 38 196.6 37.3 200.7 37.3 204.8 36.8 208.9 37.2" stroke-width="3.7"/>
<path d="M245.6 36.4 249.6 35.9 253.7 33.9 257.7 31.2 261.8 31.1" stroke-width="3.7"/>
<path d="M278.2 34.7 282.3 34.5 286.4 35.4 290.5 35 294.6 33.6 298.7 33.3 302.8 31.6 306.8 31.2 310.9 30.6 315 32.3 319.1 31.8 323.2 33 327.3 34.6 331.4 35.4 335.5 34.5 339.6 35.4" stroke-width="3.4"/>
<path d="M347.8 37.1 351.9 37.8 355.9 40 360 40" stroke-width="2.2"/>
<path d="M26.2 44.7 30.3 42.9 34.3 41.4" stroke-width="4.9"/>
<path d="M42.4 39.5 46.5 40 50.5 39.4 54.6 39.5 58.6 37.3 62.7 36" stroke-width="4.9"/>
<path d="M70.7 35.7 74.8 36.1 78.8 35.9 82.9 38.7" stroke-width="4.9"/>
<path d="M115.3 37.4 119.4 38.8 123.4 37.9 127.5 36.2 131.5 35.1 135.6 36.2 139.6 35.8 143.7 34.8 147.7 35 151.8 36" stroke-width="4.9"/>
<path d="M172.1 34.7 176.2 33.8 180.2 34.2 184.4 36.2 188.5 38.1 192.5 37 196.6 36.1" stroke-width="4.9"/>
<path d="M204.7 35.8 208.8 36 212.9 35.6" stroke-width="4.9"/>
<path d="M241.4 34.5 245.5 33.5 249.6 33.8 253.7 32.5 257.7 30.3 261.8 30.8 265.9 32.6" stroke-width="4.9"/>
<path d="M278.2 33.3 282.3 33.3 286.4 35.8 290.5 34.6 294.6 32.4 298.7 33.7 302.7 29.8" stroke-width="4.9"/>
<path d="M310.9 29.3 315 31.8 319.1 30.5 323.2 32.9 327.3 35.6" stroke-width="4.9"/>
<path d="M335.5 34.1 339.6 34.1 343.7 35.2" stroke-width="4.3"/>
<path d="M351.9 37.2 356 38.1 360 41.7" stroke-width="2.9"/>
<path d="M22 63.5 26.1 63.1 30.2 65.4 34.2 67.5 38.3 66.4 42.4 67.8 46.5 67.6" stroke-width="3.6"/>
<path d="M87.4 66.7 91.5 67.7 95.6 68.4 99.7 68.3 103.8 69.4 107.9 68.5 111.9 68.1" stroke-width="3.6"/>
<path d="M136.4 66.8 140.5 67.9 144.6 67.8 148.7 68.5" stroke-width="3.6"/>
<path d="M189.4 63.9 193.4 63.2 197.5 63 201.5 62.5 205.6 63.8" stroke-width="3.6"/>
<path d="M234.1 64.7 238.2 64.6 242.2 64.1" stroke-width="3.6"/>
<path d="M250.3 62.7 254.4 63.6 258.5 64.1 262.5 64.6" stroke-width="3.6"/>
<path d="M315.2 64.2 319.3 63.9 323.3 62.8 327.4 61.3 331.4 61.1 335.5 61.4 339.5 61.7 343.6 59.9" stroke-width="3.1"/>
<path d="M351.7 58 355.8 58 359.9 55.2" stroke-width="2.2"/>
<path d="M46.5 43.1 50.5 43 54.6 42.4" stroke-width="5.1"/>
<path d="M66.7 38.7 70.8 39.8 74.8 37.4 78.9 38.1 82.9 39.6 87 42.5 91.1 41.9 95.1 38.6 99.2 40 103.2 39.5 107.2 37.4 111.3 38.1 115.4 39.9 119.4 40.3 123.5 40.4 127.6 39.9 131.6 37.8 135.6 37.2 139.7 36.7 143.7 37.4 147.8 38.2 151.9 37.9" stroke-width="5.1"/>
<path d="M160 39.1 164 35.7 168.1 35.2 172.2 36.7" stroke-width="5.1"/>
<path d="M180.4 38 184.4 38 188.5 39.2" stroke-width="5.1"/>
<path d="M196.7 38.6 200.8 38.9 204.8 38.6 208.9 38.3" stroke-width="5.1"/>
<path d="M217 38 221.1 36.5 225.2 39 229.2 35.9 233.3 34.6 237.4 36.7 241.5 36.8 245.6 35.8 249.7 36 253.7 34.1 257.8 33.2 261.9 33.5 266 33.9 270.1 35.8 274.2 37.3 278.3 36.2" stroke-width="5.1"/>
<path d="M331.4 36.1 335.5 36.3 339.6 35.3" stroke-width="4.7"/>
<path d="M347.8 37.6 351.8 40.8 355.9 41.5 360 41.8" stroke-width="3.1"/>
<path d="M28 80.2 32 78 35.9 74.3 39.9 72.9 44 73.3 48.1 73.5 52.1 72.1 56.2 75.3 60.2 73.5 64.3 73.5 68.4 75.4 72.3 71.7 76.4 73.3 80.4 71.9 84.5 72.8 88.6 73.6 92.6 73.3 96.7 72.3 100.7 71.9 104.8 71.7 108.8 71.4 112.9 73.9 116.9 71.7 120.9 70.4 125 69.9 129 69.7 133.1 69.5 137.2 70 141.2 68.4 145.3 71.2 149.3 70.2 153.4 71.6 157.4 69.5 161.5 69.8 165.6 71.9 169.6 68.7 173.7 69.5 177.8 71.9 181.8 71.7 185.9 70.3 189.9 70.8 194 69.7 198 68.8 202.1 68.7 206.2 70.8 210.2 69.2 214.3 67.4 218.3 68.2 222.4 66.9" stroke-width="9.5"/>
<path d="M230.5 69.9 234.6 68.3 238.7 66.5 242.7 69.8 246.7 69.6 250.8 71.7 254.8 71.8 258.9 71 263 71 267 71.9 271.1 72.1 275.1 71.5 279.2 70.6 283.2 71.3 287.3 71.2 291.3 71.7 295.4 73" stroke-width="9.5"/>
<path d="M303.6 70.2 307.7 68.9 311.7 69.5 315.8 67.9 319.8 70.1 323.8 70.2 327.8 73.3 332 69.6 336 71.9 340 72 344 73 348.1 72.6 352.1 73.4 356.1 74.9" stroke-width="9.5"/>
<path d="M28 79.8 32 78.8 36.1 80.1 40.1 78.8 44.2 79.1 48.2 78.3 52.3 79.1 56.4 80.4 60.4 80.1 64.5 79.2 68.5 77.7 72.6 79.2 76.7 80.3 80.6 77.7 84.6 76.3 88.7 78 92.9 79.8 96.8 77.5 100.9 77 104.9 77.1 108.9 75.9 113 77.5 117 76 121.1 75.9 125.1 75.7 129.2 76.4 133.3 79 137.3 76.5 141.4 77.6 145.4 76.2 149.4 74.7 153.5 76 157.5 74.5 161.6 72.8 165.6 72.8 169.7 74.6 173.7 72.9 177.8 74.4 181.9 76.2 185.9 75 190 74.9 194 77.1 198.1 75.9 202.1 76.3 206.2 73 210.2 73.3 214.3 76.3 218.3 73.8 222.4 74.1 226.4 73.4 230.5 74.3 234.5 75.6 238.6 77.1 242.6 77 246.6 77.7 250.7 76.3 254.8 72.9 258.8 77.3 262.8 77.7 266.9 76.2 271 76.7 275 76.2 279.1 74.5 283.1 76.1 287.1 77.7 291.2 75.5 295.2 78.2 299.3 78 303.3 78.2 307.4 76.1 311.4 79.2 315.5 77.6 319.5 78 323.6 78.3 327.7 74.6 331.7 77 335.8 76.3 339.8 76.9 343.9 76.7 348 75.4 351.9 80.5 356 79.2" stroke-width="9.5"/>
<path d="M40.3 84.3 44.4 84.9 48.3 82.1 52.5 83.8 56.5 84.6 60.6 86 64.6 81.7 68.6 82.1 72.7 83 76.8 84.1 80.9 85 84.9 84 88.9 83.1 92.9 82.1 97.1 84.8 101 81.8 105.1 82.8 109.2 83 113.2 83.1 117.3 83.7 121.2 80.8 125.4 83.6 129.4 81.9 133.4 82.2 137.5 81.7 141.6 83.6 145.5 80.7 149.6 81 153.7 83.1 157.7 82 161.8 83.6 165.7 79.6 169.8 78.8 173.8 80.7 177.9 80.5 181.9 79.8 186 79.1 190 79.4 194.1 81.2 198.1 82.5 202.1 79.3 206.2 80.1 210.2 80.8 214.3 82.3 218.3 81.8 222.4 78 226.4 78.8 230.4 80.3 234.5 81.3 238.5 79.9 242.5 83 246.6 80.1 250.7 80 254.7 81 258.7 80.8 262.8 81.9 266.8 80.8 270.9 80.6 274.9 82.8 278.9 83.5 283 81.9 287 84.5 291.1 82.4 295.1 81 299.2 80.1 303.2 80.7 307.3 80.8 311.3 82.3 315.4 82 319.3 84 323.5 81.6 327.5 81.5 331.5 85 335.6 83.6 339.6 83.9 343.7 83 347.7 83.6 351.9 80.3 355.9 82.5" stroke-width="9.5"/>
<path d="M39.9 72.3 43.9 70.5 48 70.8 52 71.3 56 69.3 60.1 69.2 64.1 69.4 68.2 70.5" stroke-width="5.4"/>
<path d="M76.3 70.8 80.3 68.7 84.4 68.4 88.4 66.7 92.5 67.8 96.6 69.1 100.6 69.1 104.6 68.6 108.7 67.3 112.7 67.3" stroke-width="5.4"/>
<path d="M120.9 67.6 124.9 66.6 129 67.6 133 67.8 137 65 141.1 65.7 145.2 67.3 149.2 65.6 153.3 66.6 157.4 65.8 161.4 64.6 165.5 67.1 169.6 65.8 173.6 64.7 177.7 67.7 181.8 67.5 185.8 67.4 189.9 66.7 194 67.3 198 66.6 202.1 66.3 206.1 65.3 210.2 67.8 214.3 67.8" stroke-width="5.4"/>
<path d="M222.4 66.3 226.5 67.7 230.5 66.3 234.6 65 238.7 67.1 242.8 64.4" stroke-width="5.4"/>
<path d="M250.9 65.7 254.9 65 259 66.3 263.1 65.8 267.1 68 271.1 68.6 275.2 66.5 279.3 64.4 283.3 67" stroke-width="5.4"/>
<path d="M299.6 67.6 303.6 69.5 307.7 68 311.7 68.1 315.8 67.5 319.8 69.9 323.8 70.3 327.9 69.1 332 69.4 336 70.2 340 71.6 344.1 71.9 348.1 72.5 352.1 73.5 356.1 74.1" stroke-width="5.4"/>
<path d="M32.2 83.8 36.3 87.4 40.4 87.3 44.5 88.8" stroke-width="5.9"/>
<path d="M52.6 89.1 56.7 88 60.7 86.9 64.8 87.7 68.8 88.1 72.8 86.9 76.9 86.2 81 87.2 85 88 89.1 87.3" stroke-width="5.9"/>
<path d="M97.2 88 101.2 87.8 105.3 87.8 109.3 86.1 113.3 85.3" stroke-width="5.9"/>
<path d="M129.5 86.1 133.5 85.4 137.6 88 141.6 86.3 145.6 85.4 149.7 85.1" stroke-width="5.9"/>
<path d="M169.9 86.2 173.9 85.9 177.9 84.8 182 83.2 186 84.5" stroke-width="5.9"/>
<path d="M194.1 82.5 198.1 84.9 202.1 83.5 206.2 83.5 210.2 84.6 214.3 84.5 218.3 84.4 222.3 83.3 226.4 83.9 230.4 83.9 234.4 85.7 238.5 86" stroke-width="5.9"/>
<path d="M262.7 85.7 266.7 84.4 270.8 83.2 274.8 84.7 278.8 86.4 282.8 87.5 286.9 85.3 290.9 88 295 86.6 299.1 84 303.1 84.5 307.1 85.5 311.2 86.1 315.1 88.5 319.3 85.3 323.3 86.4 327.4 86.1 331.4 85.3 335.5 84.7 339.5 86.2 343.6 85.7 347.7 85.1 351.8 83.4" stroke-width="3.5"/>
<path d="M28 78 31.9 74.8 35.9 73.9 39.9 72.2 43.9 71 48 72.1 52.1 72.6 56.1 72.3 60.2 72.3 64.2 72.1 68.3 71.9 72.3 72.3 76.3 70.5 80.4 69.9 84.4 70.1 88.5 70.7 92.5 69.2 96.6 70.1 100.7 70.5 104.7 70.1 108.7 69.2 112.8 69.6 116.9 69.7 120.9 70.3" stroke-width="3.9"/>
<path d="M129 70.2 133.1 69.2 137.1 69.2 141.2 67.9 145.2 68 149.3 68.3" stroke-width="3.9"/>
<path d="M157.4 67.2 161.5 67.5 165.5 68.5 169.6 68.5" stroke-width="3.9"/>
<path d="M189.9 68.6 194 68.4 198 68.4" stroke-width="3.9"/>
<path d="M206.1 67.2 210.2 68.1 214.3 68.3" stroke-width="3.9"/>
<path d="M222.4 68.2 226.5 68.6 230.5 68.5 234.6 68.8 238.6 69.1 242.7 67 246.8 67.1 250.8 67.4 254.9 67.5 259 68 263 68.9 267.1 69.3 271.1 69.5 275.2 68.6 279.3 68.3 283.3 68.5 287.4 69 291.4 69 295.5 69.1 299.5 71.1 303.5 70.6 307.7 68.9 311.7 69.5 315.8 69" stroke-width="3.9"/>
<path d="M336 71.5 340 72 344 73.3 348.1 73.1 352 75.9 356.1 75.7" stroke-width="3.9"/>
<path d="M28.1 83.4 32.3 87.6 36.4 90.6 40.5 91.5 44.6 92.8 48.7 93 52.7 91.6 56.8 92" stroke-width="4.6"/>
<path d="M93.3 93.3 97.3 93 101.3 90.9 105.4 90.6 109.4 89.8 113.4 89.2 117.4 88.9 121.5 90.1 125.6 89.9 129.6 89.1 133.6 89.8" stroke-width="4.6"/>
<path d="M149.8 89.8 153.8 90.5 157.9 90.7 161.9 89.5 165.9 90.4 170 90.8 174 90.3 178 87.6 182 86.9 186 87.9 190.1 88.1 194.1 87.6 198.1 87.1 202.2 89.2" stroke-width="4.6"/>
<path d="M210.2 88.3 214.3 87.9 218.3 86.6 222.3 87.6 226.3 88.2 230.4 88.3 234.4 88.5 238.4 88.5 242.4 90.2" stroke-width="4.6"/>
<path d="M250.5 89.9 254.5 90.6 258.6 89.9" stroke-width="4.6"/>
<path d="M266.7 87 270.7 87.7 274.7 89.7" stroke-width="4.6"/>
<path d="M282.7 91.3 286.8 90.1 290.8 90.8 294.9 90.4" stroke-width="4.6"/>
<path d="M303 88.5 307 91.3 311 91.2" stroke-width="4.6"/>
<path d="M339.4 89 343.5 88.9 347.6 86.3 351.7 85.1 355.9 81.8" stroke-width="4.6"/>
<path d="M28.1 84 32.3 87.7 36.5 90.7 40.6 93.2 44.8 96.6" stroke-width="5.9"/>
<path d="M52.8 94.6 56.9 94.6 61 95.3 64.9 93.2" stroke-width="5.9"/>
<path d="M73 90.8 77.1 93 81.2 94.1 85.2 93.6 89.3 92.9 93.4 95.7 97.3 92.9 101.4 94.4 105.4 92.6" stroke-width="5.9"/>
<path d="M117.5 91.1 121.5 90.2 125.6 91.6" stroke-width="5.9"/>
<path d="M133.7 94 137.8 93.6 141.8 93.6 145.8 92.5 149.9 93.5" stroke-width="5.9"/>
<path d="M170 91.3 174 91.6 178 91 182 89.3 186.1 90.1 190.1 88.7 194.1 89.4 198.2 90.8 202.2 91.6 206.2 89.6 210.2 90" stroke-width="5.9"/>
<path d="M218.3 89.5 222.3 89.5 226.3 90.5 230.4 90 234.4 91.1 238.4 92.3" stroke-width="5.9"/>
<path d="M246.5 90.6 250.5 91 254.5 90.9" stroke-width="5.9"/>
<path d="M278.7 92.6 282.7 94.2 286.7 94" stroke-width="5.9"/>
<path d="M303 88.3 306.9 92.5 310.9 93.3 314.9 94.6 319.1 91" stroke-width="5.9"/>
<path d="M327.2 92.5 331.2 91.4 335.4 88.9 339.4 89.2" stroke-width="4.9"/>
<path d="M347.6 87.8 351.7 84.5 355.8 83.1" stroke-width="5.9"/>
<path d="M28 80.1 32.1 80.4 36.1 78.3 40.1 78.1 44.2 78.3 48.3 79.2 52.3 77.5 56.3 77.5 60.3 77.2 64.4 77.2 68.5 77.8 72.6 78.8 76.6 77.2 80.6 77.1 84.7 77.7 88.7 76.4 92.8 77.1 96.8 77.8 100.9 77.4 104.9 77.7 108.9 76 113 77.5 117.1 77.1 121.1 76.4 125.2 76.4 129.2 75.4 133.2 74.9 137.3 75.2 141.3 74.3 145.4 74.3 149.4 75.1 153.5 75.8 157.6 76.2 161.6 76.1 165.7 75.4 169.7 76.1 173.7 73.8 177.8 75.8 181.9 75.7 185.9 76 190 75.1 194 74.2 198.1 74 202.1 73.7 206.2 75.6 210.2 75.7 214.3 74 218.3 75.7 222.4 75.3 226.4 74.1 230.5 74.5 234.5 74.5 238.6 74.9 242.6 74.8 246.7 73.7 250.7 76.2 254.8 75.6 258.8 75.3 262.9 74.8 266.9 75 271 74.9 275.1 74.3 279.1 75.2 283.1 75 287.2 76.2 291.2 76.3 295.3 75.6 299.4 74.8 303.4 75 307.5 74.9 311.5 77.2 315.5 77.5 319.6 75.3 323.6 76.1 327.7 77.3 331.7 76.7 335.8 76.8 339.8 77.4 343.9 76.8 347.9 77.5 352 77.2 356 78.2" stroke-width="4.6"/>
<path d="M28.1 82.3 32.1 82 36.2 83.1 40.4 85.6 44.4 85.7 48.5 85.8 52.5 85.2 56.5 83.4 60.6 84.2 64.6 82.5 68.6 81.7" stroke-width="5.4"/>
<path d="M76.7 82.4 80.8 84.1 84.8 82.4 88.9 83 93 84.5" stroke-width="5.4"/>
<path d="M105.1 81.8 109.1 81.7 113.2 83.3 117.3 83 121.3 82 125.3 81 129.3 80.9 133.4 81.6 137.5 81.3 141.5 82.2 145.6 83.2 149.6 81.9 153.7 83.2 157.7 83 161.7 82 165.8 80.6 169.8 80.1" stroke-width="5.4"/>
<path d="M177.9 80.2 181.9 79.7 186 80.1 190 78.9 194 78.9 198.1 81.1" stroke-width="5.4"/>
<path d="M206.2 80.8 210.2 81.1 214.3 78.6" stroke-width="5.4"/>
<path d="M222.3 79.9 226.4 79.7 230.4 80.9 234.5 81.1 238.5 80.6 242.6 80.9 246.6 80.5 250.6 81.7 254.7 82.2 258.7 82.4 262.8 81" stroke-width="5.4"/>
<path d="M270.9 81.2 274.9 81.4 278.9 81.1 282.9 83 287 82.5 291 83.9 295.1 83.1 299.2 80.8 303.2 80.7 307.2 82.2" stroke-width="5.4"/>
<path d="M335.6 81.2 339.7 82 343.7 81.6 347.8 80.4 351.9 80.9 355.9 80.3" stroke-width="5.4"/>
<path d="M28.1 84.3 32.3 88 36.4 88.9 40.6 92.5 44.7 93.3 48.7 92.2 52.7 92.2 56.7 90.5 60.8 90.9 64.8 89.6 68.9 89.1" stroke-width="4.9"/>
<path d="M89.2 91.1 93.2 90.5 97.3 91.4 101.3 90.7 105.3 89.8 109.4 88.8" stroke-width="4.9"/>
<path d="M117.5 89.4 121.5 89.3 125.6 90.3 129.6 90.5 133.7 90.9 137.7 91.2 141.7 91.1 145.8 90.9 149.8 90.6 153.8 90.8 157.9 90.1 161.9 89.6 165.9 90 169.9 88.1 173.9 88.1 178 89.3 182 87.3 186 86.2 190.1 86.6 194.1 87.5 198.1 87.6 202.2 88.2" stroke-width="4.9"/>
<path d="M226.3 87.6 230.4 88.4 234.4 88.9 238.4 89.7 242.5 87.3 246.5 88.7 250.5 90.3 254.5 89.9 258.6 90.5 262.6 89.4 266.7 87.4 270.7 86.3 274.7 89.4 278.7 90 282.8 90.7" stroke-width="4.9"/>
<path d="M290.8 91.6 294.9 89 299 87.3 303 87.8 307 90.3" stroke-width="4.9"/>
<path d="M331.3 90 335.4 89 339.5 87.7 343.6 86.6 347.6 86.7 351.8 83.5 355.8 83.4" stroke-width="4.9"/>
<path d="M27.9 76.2 31.9 74.4 35.9 71.8 39.9 71.1 43.9 70.1 48 70.1" stroke-width="3.7"/>
<path d="M60.1 69.9 64.1 68.7 68.2 69.4 72.2 69.8 76.3 69.7 80.3 67.8 84.3 67.7 88.4 67.9 92.4 67.4 96.5 67.8 100.6 67.4 104.6 66.9 108.7 67.3 112.8 69.3" stroke-width="3.7"/>
<path d="M120.9 68.6 124.9 68 129 68 133 65.7 137.1 66.2 141.1 67.1 145.2 65.2 149.2 64.7 153.3 64.8 157.4 65.6 161.4 66.1 165.5 64.9 169.5 64.9 173.6 66 177.7 67 181.8 67 185.8 66" stroke-width="3.7"/>
<path d="M202.1 65.9 206.1 65.7 210.2 65.8 214.3 66.3" stroke-width="3.7"/>
<path d="M230.5 65.6 234.6 66.2 238.7 65.1 242.7 65.2 246.8 65.9 250.9 66.7 254.9 64.7" stroke-width="3.7"/>
<path d="M267.1 67.7 271.1 68 275.2 67 279.3 66.3" stroke-width="3.7"/>
<path d="M299.5 68.8 303.6 68.7 307.7 67.7 311.8 67.2 315.8 66.9 319.8 69.3" stroke-width="3.7"/>
<path d="M332 69.4 336 69.7 340.1 70.6" stroke-width="3.1"/>
<path d="M28.1 84.5 32.2 85.7 36.4 88 40.5 88.8 44.5 89.1" stroke-width="5"/>
<path d="M52.7 89.7 56.7 88.8 60.7 87.6 64.8 88.7 68.8 88.3" stroke-width="5"/>
<path d="M76.9 86.8 81 87.8 85 87.9" stroke-width="5"/>
<path d="M109.3 87.5 113.3 86.3 117.4 86 121.4 85.4 125.4 85.7 129.5 85.3 133.6 86.7 137.6 87.9 141.6 87 145.7 88.2 149.7 87.5 153.8 87 157.8 85.7" stroke-width="5"/>
<path d="M194.1 84.7 198.1 85.7 202.2 86.1 206.2 84" stroke-width="5"/>
<path d="M234.4 85.4 238.5 85.3 242.5 86.4 246.5 85.1 250.6 85.7 254.6 86.2 258.6 86.1 262.7 84.7 266.7 84.2 270.8 85.8 274.8 85.6 278.8 87.9 282.8 87.5 286.9 87.9" stroke-width="5"/>
<path d="M295 85.9 299.1 84.8 303.1 86.6" stroke-width="5"/>
<path d="M311.1 88.9 315.2 88.1 319.3 86.2 323.3 85.9" stroke-width="5"/>
<path d="M335.5 85.9 339.5 85.6 343.6 86.3 347.7 83.5 351.8 83.6 355.9 81.1" stroke-width="5"/>
<path d="M27.9 77.6 32 77.3 36 76.9 40.1 76.6 44.1 77.1 48.2 77 52.2 76.6 56.2 74.9 60.3 75 64.3 74.9 68.4 76.6 72.5 76.7 76.5 75.3 80.5 75.2 84.5 73.7 88.6 73.6 92.7 75.2 96.8 75.4 100.7 73.1 104.8 73 108.9 73.3 112.9 73.6 117 74.5 121.1 74.8 125.1 74.7 129.1 72.5 133.2 73.6 137.3 73.8 141.3 72.4 145.3 72.7 149.4 73 153.5 73.1 157.5 72 161.5 72.2 165.6 71.3 169.7 72.2 173.7 73.5 177.8 73.4 181.8 71.7 185.9 71.5 189.9 72.5 194 72.7 198 71.5 202.1 72.4 206.2 72.5 210.2 71.4 214.3 71.7 218.3 72.3 222.4 72.7 226.4 72.4 230.5 73 234.5 72.1 238.6 72.6 242.7 71.6 246.7 72.6 250.8 72.3 254.8 72.8 258.9 73 262.9 73.8 267 73.1 271 72.7 275.1 72.5 279.1 74 283.2 72.6 287.3 72.9 291.3 72.9 295.3 73.9 299.4 74.3 303.4 74.4 307.5 74.3 311.6 73.1 315.6 72.8 319.6 74.4 323.7 73.8 327.8 74 331.8 74.9 335.8 75.2 339.9 75.3 343.9 75.8 348 75.2 352 77.3 356.1 76.4" stroke-width="4.2"/>
<path d="M32.1 82.4 36.1 80.9 40.2 81.3 44.3 82 48.3 81.5 52.4 81 56.5 82.6 60.5 81 64.5 81.3 68.6 81.1 72.6 80.8 76.7 80.3 80.7 81.2 84.8 81.4 88.9 81.7 92.9 81.9 96.9 80.6 101 80.6 105 80.5 109.1 80.9 113.1 79.6 117.2 79.5 121.2 79.6 125.3 79.6 129.3 78.7 133.4 79.6 137.4 78.4 141.5 80.3 145.5 79.1 149.5 79.1 153.6 79.4 157.6 79.4 161.7 79.9 165.7 78.2 169.8 78.3 173.8 77.5 177.9 79.1 181.9 79.1 186 79 190 78.2 194 78 198.1 78.2 202.1 77.4 206.2 77.3 210.2 78.6 214.3 76.8 218.3 78.8 222.4 78.7 226.4 78.3 230.5 77.7 234.5 77.3 238.5 78.7 242.6 79.3 246.6 77.9 250.7 78.6 254.7 78.3 258.8 79.3 262.8 79 266.9 78.6 270.9 78.3 275 78.2 279 79.2 283.1 78.4 287.1 78.7 291.1 79.5 295.2 79.7 299.2 79.3 303.3 79.5 307.3 78.9 311.3 81.1 315.4 81 319.4 80.7 323.6 78.8 327.6 80.3 331.6 79.7 335.6 80.9 339.7 80.3 343.8 79.4" stroke-width="3"/>
<path d="M52.7 90.8 56.7 90.4 60.8 90 64.8 88.5 68.8 88.1 72.9 88.1 76.9 87.9 81.1 90.2 85.1 89.7 89.2 90.1" stroke-width="4.9"/>
<path d="M101.2 88.1 105.3 89 109.3 87.6 113.3 86.4 117.4 86.5 121.5 88.1 125.5 89 129.5 88.2 133.6 87.7 137.7 89.4 141.7 88.3" stroke-width="4.9"/>
<path d="M149.8 88.7 153.8 88.3 157.8 87.8 161.9 89.3 165.9 87.6 169.9 87.7 173.9 86.2 178 85.9 182 87.4" stroke-width="4.9"/>
<path d="M234.4 88.1 238.4 87.8 242.5 87.6 246.5 87 250.6 86.4 254.6 88.4" stroke-width="4.9"/>
<path d="M278.8 88.8 282.8 88.3 286.8 89.6 290.9 88.5 295 87.4" stroke-width="4.9"/>
<path d="M303 87.4 307.1 87.5 311.1 89.2" stroke-width="4.9"/>
<path d="M319.3 86.6 323.3 87.2 327.3 89 331.4 87.4 335.5 85.8 339.5 86.9 343.5 87.8 347.6 86.2 351.8 82.5 355.9 81.9" stroke-width="4.9"/>
<path d="M27.9 77.6 31.9 75 35.9 74.3 39.9 72.9 44 73 48.1 73.2 52.1 73.6 56.1 72.3" stroke-width="3.4"/>
<path d="M64.2 72 68.3 72.7 72.4 73 76.4 73.2 80.4 71.4 84.5 71.4 88.5 71.5 92.5 70.7 96.6 71.7 100.7 71.7" stroke-width="3.4"/>
<path d="M129.1 71 133.1 69.9 137.2 70.1 141.2 69.9 145.3 69.1 149.3 68.6 153.4 69.4 157.4 69.8 161.5 69.1 165.6 69.2" stroke-width="3.4"/>
<path d="M173.7 68.8 177.7 70.3 181.8 68.8 185.9 69.7 189.9 69.2 194 69.3 198 69.5 202.1 68.8 206.2 69.5 210.2 69.6 214.3 70.4 218.3 69 222.4 69.5" stroke-width="3.4"/>
<path d="M230.5 68.7 234.6 69.5 238.6 68.8 242.7 69.9 246.7 69.9 250.8 70 254.9 69.5 258.9 68.9 263 69.3 267 69.9" stroke-width="3.4"/>
<path d="M283.3 68.7 287.4 69 291.4 70.4 295.4 70.3 299.5 71.4 303.5 71.5 307.6 70.8 311.7 70.2 315.7 70 319.8 70.9 323.8 71.4 327.8 72.9 331.9 73.1 335.9 73.1 340 73.3 344 73.8 348 73.8 352.1 75.2 356.1 75.7" stroke-width="3.4"/>
<path d="M27.9 76.1 32 76.5 35.9 74.3 40 73.3 44 72.4 48.1 73.3 52.1 74" stroke-width="5.1"/>
<path d="M60.2 74 64.2 72.5 68.3 73.7 72.4 73.6 76.4 72.4 80.4 70.2 84.5 71.3 88.6 72.4" stroke-width="5.1"/>
<path d="M137.1 68.8 141.2 69.7 145.2 68.3 149.3 69.7 153.4 69.5 157.4 69.4 161.5 69.8 165.6 70.4 169.6 69.3" stroke-width="5.1"/>
<path d="M185.9 70.5 189.9 69.2 194 69.1 198 69.1 202.1 68 206.2 68 210.2 68.3 214.3 71 218.3 70.2 222.4 68.6 226.4 70.6 230.5 70.1 234.6 69.9 238.6 69.5" stroke-width="5.1"/>
<path d="M254.9 70.4 258.9 68.4 263 69.2 267 70 271.1 70 275.2 69.2 279.2 70.1" stroke-width="5.1"/>
<path d="M287.3 70.2 291.4 68.7 295.4 70.2 299.5 71.8 303.5 72.3" stroke-width="5.1"/>
<path d="M311.7 69.6 315.7 71.6 319.8 70.7 323.7 73.1" stroke-width="5.1"/>
<path d="M331.9 71.7 335.9 73.2 340 72.5 344 74.1 348.1 73.5 352.1 74.3 356.1 75.2" stroke-width="5.1"/>
<path d="M28 79 32.1 82.5 36.1 79.8 40.2 81.6 44.3 80.9 48.3 81.2 52.4 81.5 56.4 79.7 60.5 81.5 64.5 81.3 68.6 80.6 72.6 79.3 76.6 79 80.7 80.5 84.7 79.5 88.8 78.9 92.9 81.1 96.9 79.2 101 80.5 105 78.8 109 77.8 113 77.5 117.2 79.4 121.2 77.7 125.3 79.3 129.3 80 133.3 79.2 137.4 79.6 141.4 76.9 145.5 78.5 149.5 77 153.6 79.3 157.6 78.1 161.7 78.8 165.7 77.3 169.7 77.6 173.8 77.3 177.8 76.1 181.9 78.1 185.9 75.3 190 76.1 194 77.4 198.1 76.4 202.1 77.5 206.2 77.5 210.2 75.2 214.3 77.3 218.3 77.6 222.4 78.5 226.4 77.5 230.5 77.6 234.5 78.6 238.5 78.2 242.6 78.2 246.6 77.7 250.7 77.6 254.8 76.4 258.8 76.8 262.8 78.5 266.9 76.7 271 75.7 275 78.5 279 78.5 283.1 76.6 287.1 77.1 291.1 79.2 295.2 78.2 299.3 77.2 303.3 77.9 307.4 78.6 311.4 79.8 315.4 80.5 319.5 78.8 323.5 80.6 327.6 78.2 331.6 79.8 335.8 77.7 339.7 79.4 343.8 80.4 347.8 79.6 351.9 79.3 356 77.2" stroke-width="6.2"/>
</svg>
